<svg xmlns="http://www.w3.org/2000/svg" viewBox="0 0 11 9" width="11" height="9">
	<style>
		tspan { white-space:pre }
		.shp0 { fill: #1cb8ff } 
	</style>
	<path id="checked" class="shp0" d="M1.12,5.39l0.08,0.12l3,3.37c0.08,0.08 0.15,0.12 0.27,0.12c0.12,0 0.19,-0.04 0.27,-0.12l6.15,-6.67v0c0.15,-0.16 0.15,-0.4 0,-0.56l-0.54,-0.56c-0.15,-0.16 -0.38,-0.16 -0.54,0v0h-0.04l-5.15,5.58c-0.08,0.08 -0.19,0.08 -0.27,0l-2.12,-2.37l-0.04,-0.04c-0.15,-0.16 -0.38,-0.16 -0.54,0l-0.54,0.56c-0.08,0.08 -0.12,0.2 -0.12,0.28c0,0.08 0.04,0.2 0.12,0.28z" />
</svg>